<?xml version="1.0" encoding="utf-8"?>
<!-- Generator: Adobe Illustrator 18.1.1, SVG Export Plug-In . SVG Version: 6.00 Build 0)  -->
<svg version="1.1" id="Calque_1" xmlns="http://www.w3.org/2000/svg" xmlns:xlink="http://www.w3.org/1999/xlink" x="0px" y="0px"
	 viewBox="0 0 630 180" enable-background="new 0 0 630 180" xml:space="preserve">
<g>
	<path fill="#FFFFFF" d="M38.2,153.2h3.4v24.9h-3.4V153.2z"/>
	<path fill="#FFFFFF" d="M58.6,153.2h4L75,173.3v-20.1h3.2v24.9h-3.8L61.8,158v20.1h-3.2V153.2z"/>
	<path fill="#FFFFFF" d="M97.3,170c0.1,1.4,0.4,2.6,1,3.4c1.1,1.7,3,2.5,5.7,2.5c1.2,0,2.3-0.2,3.3-0.5c1.9-0.7,2.9-2,2.9-3.8
		c0-1.4-0.4-2.3-1.2-2.9c-0.8-0.6-2.1-1.1-3.9-1.5l-3.3-0.8c-2.1-0.5-3.6-1-4.5-1.6c-1.5-1-2.3-2.6-2.3-4.7c0-2.2,0.8-4.1,2.3-5.5
		c1.5-1.4,3.6-2.2,6.4-2.2c2.5,0,4.7,0.6,6.5,1.9c1.8,1.3,2.7,3.3,2.7,6h-3.2c-0.2-1.3-0.5-2.4-1-3.1c-1-1.3-2.7-2-5-2
		c-1.9,0-3.3,0.4-4.1,1.3c-0.8,0.8-1.3,1.8-1.3,2.9c0,1.2,0.5,2.1,1.5,2.7c0.6,0.4,2.1,0.8,4.4,1.4l3.4,0.8c1.6,0.4,2.9,0.9,3.8,1.6
		c1.5,1.2,2.3,2.9,2.3,5.1c0,2.8-1,4.7-2.9,5.9c-2,1.2-4.2,1.8-6.8,1.8c-3,0-5.4-0.8-7.1-2.4c-1.7-1.6-2.5-3.7-2.5-6.4H97.3z"/>
	<path fill="#FFFFFF" d="M130.1,153.2h11.2c2.2,0,4,0.6,5.3,1.9c1.4,1.3,2,3,2,5.3c0,1.9-0.6,3.6-1.8,5.1c-1.2,1.4-3.1,2.2-5.6,2.2
		h-7.8v10.5h-3.4V153.2z M143.2,156.6c-0.7-0.3-1.8-0.5-3-0.5h-6.7v8.6h6.7c1.5,0,2.7-0.3,3.7-1c0.9-0.6,1.4-1.8,1.4-3.4
		C145.2,158.5,144.5,157.2,143.2,156.6z"/>
	<path fill="#FFFFFF" d="M165.2,153.2h3.4v24.9h-3.4V153.2z"/>
	<path fill="#FFFFFF" d="M186,153.2h11.3c1.9,0,3.4,0.3,4.6,0.8c2.3,1.1,3.4,3,3.4,5.9c0,1.5-0.3,2.7-0.9,3.7
		c-0.6,1-1.5,1.7-2.6,2.3c1,0.4,1.7,0.9,2.2,1.6c0.5,0.6,0.8,1.7,0.8,3.1l0.1,3.3c0,1,0.1,1.7,0.2,2.1c0.2,0.8,0.6,1.3,1.1,1.5v0.6
		h-4.1c-0.1-0.2-0.2-0.5-0.3-0.8c-0.1-0.3-0.1-1-0.2-2l-0.2-4.2c-0.1-1.6-0.7-2.7-1.8-3.3c-0.6-0.3-1.6-0.5-3-0.5h-7.5v10.7H186
		V153.2z M196.9,164.6c1.5,0,2.8-0.3,3.7-1c0.9-0.6,1.3-1.8,1.3-3.4c0-1.8-0.6-3-1.9-3.6c-0.7-0.3-1.6-0.5-2.7-0.5h-8v8.5H196.9z"/>
	<path fill="#FFFFFF" d="M222.9,153.2h3.4v24.9h-3.4V153.2z"/>
	<path fill="#FFFFFF" d="M243.2,153.2h4l12.4,20.1v-20.1h3.2v24.9h-3.8L246.5,158v20.1h-3.2V153.2z"/>
	<path fill="#FFFFFF" d="M296.4,153.9c2.4,1.3,3.9,3.6,4.5,6.8h-3.3c-0.4-1.8-1.2-3.1-2.5-4c-1.3-0.8-2.8-1.2-4.7-1.2
		c-2.3,0-4.2,0.9-5.7,2.6c-1.5,1.7-2.3,4.3-2.3,7.7c0,3,0.6,5.4,1.9,7.2c1.3,1.9,3.4,2.8,6.2,2.8c2.2,0,4-0.7,5.5-2
		c1.4-1.3,2.2-3.4,2.2-6.3h-7.8v-2.8h10.9v13.3h-2.2l-0.8-3.2c-1.1,1.3-2.1,2.1-3,2.6c-1.5,0.8-3.3,1.3-5.6,1.3
		c-2.9,0-5.4-1-7.5-2.9c-2.3-2.4-3.4-5.7-3.4-9.9c0-4.2,1.1-7.5,3.3-10c2.1-2.4,4.9-3.5,8.2-3.5C292.7,152.5,294.7,153,296.4,153.9z
		"/>
	<path fill="#FFFFFF" d="M339.4,153.2h3.4v22h12.5v3h-15.9V153.2z"/>
	<path fill="#FFFFFF" d="M370.5,153.2h18.1v3.1h-14.8v7.6h13.7v2.9h-13.7v8.4h15v3h-18.3V153.2z"/>
	<path fill="#FFFFFF" d="M412.1,153.2h3.8l9,24.9h-3.7l-2.6-7.5h-9.8l-2.7,7.5h-3.5L412.1,153.2z M417.7,167.9l-3.8-11l-4,11H417.7z
		"/>
	<path fill="#FFFFFF" d="M439.9,153.2h11.3c1.9,0,3.4,0.3,4.6,0.8c2.3,1.1,3.4,3,3.4,5.9c0,1.5-0.3,2.7-0.9,3.7
		c-0.6,1-1.5,1.7-2.6,2.3c1,0.4,1.7,0.9,2.2,1.6c0.5,0.6,0.8,1.7,0.8,3.1l0.1,3.3c0,1,0.1,1.7,0.2,2.1c0.2,0.8,0.6,1.3,1.1,1.5v0.6
		h-4.1c-0.1-0.2-0.2-0.5-0.3-0.8c-0.1-0.3-0.1-1-0.2-2l-0.2-4.2c-0.1-1.6-0.7-2.7-1.8-3.3c-0.6-0.3-1.6-0.5-3-0.5h-7.5v10.7h-3.4
		V153.2z M450.9,164.6c1.5,0,2.8-0.3,3.7-1c0.9-0.6,1.3-1.8,1.3-3.4c0-1.8-0.6-3-1.9-3.6c-0.7-0.3-1.6-0.5-2.7-0.5h-8v8.5H450.9z"/>
	<path fill="#FFFFFF" d="M476,153.2h4l12.4,20.1v-20.1h3.2v24.9h-3.8L479.3,158v20.1H476V153.2z"/>
	<path fill="#FFFFFF" d="M513.4,153.2h3.4v24.9h-3.4V153.2z"/>
	<path fill="#FFFFFF" d="M533.7,153.2h4l12.4,20.1v-20.1h3.2v24.9h-3.8L536.9,158v20.1h-3.2V153.2z"/>
	<path fill="#FFFFFF" d="M586.9,153.9c2.4,1.3,3.9,3.6,4.5,6.8H588c-0.4-1.8-1.2-3.1-2.5-4c-1.3-0.8-2.8-1.2-4.7-1.2
		c-2.3,0-4.2,0.9-5.7,2.6c-1.5,1.7-2.3,4.3-2.3,7.7c0,3,0.6,5.4,1.9,7.2c1.3,1.9,3.4,2.8,6.2,2.8c2.2,0,4-0.7,5.5-2
		c1.4-1.3,2.2-3.4,2.2-6.3h-7.8v-2.8h10.9v13.3h-2.2l-0.8-3.2c-1.1,1.3-2.1,2.1-3,2.6c-1.5,0.8-3.3,1.3-5.6,1.3
		c-2.9,0-5.4-1-7.5-2.9c-2.3-2.4-3.4-5.7-3.4-9.9c0-4.2,1.1-7.5,3.3-10c2.1-2.4,4.9-3.5,8.2-3.5C583.2,152.5,585.2,153,586.9,153.9z
		"/>
</g>
<path fill="#FFFFFF" d="M95.6,3.4c-6,0-17,0-17,0s-3.3-0.1-5.1,3.2c-1.8,3.3-23.6,39.8-23.6,39.8S28.1,9.9,26.3,6.6
	c-1.8-3.3-5.1-3.2-5.1-3.2s-11,0-17,0c-6-0.1-3,5.2-3,5.2s33.3,53.8,35.3,57c2,3.2,1.7,6.5,1.7,6.5s0.1,29.3,0,33
	c0,5.3,3.7,4.9,3.7,4.9h8h8c0,0,3.7,0.4,3.7-4.9c-0.1-3.7,0-33,0-33s-0.3-3.4,1.7-6.5c2-3.2,35.3-57,35.3-57S101.6,3.3,95.6,3.4z"/>
<path fill="#FFFFFF" d="M172.4,93.6c-0.6-4.6-5.9-4.3-5.9-4.3s-42.8,0-46.5,0c-3.7,0-3.7-1.7-3.7-1.9c0-0.2,0-17.1,0-20.2
	c0-2.9,3.7-2.5,4.3-2.5c0.7,0,41.1,0,41.1,0c6.5,0,6-4.2,6-5.3c0,0,0-7.9,0-8.7c0-1.4,0.6-5.4-6-5.4c0,0-42.5,0-43.3,0
	c-0.6,0-2.1,0-2.1-3.2c0-3.1,0-16.1,0-16.3c0-0.2,0-1.9,3.7-1.9c3.8,0,46.5,0,46.5,0s5.2,0.3,5.9-4.3c0-3.8,0-13.2,0-13.2
	s0.2-3.2-4.9-3.2c-26.2,0-34.2,0-34.2,0s-17,0-22,0c-5,0-6.4,2.4-8.2,5.4c-7.2,13.1-9,14.4-9,17.6c0,3.7,0,19.9,0,26.7
	c0,0,0,2.8,0,7.1c0,13.4,0,41.7,0,45.4c0,4.7,5.5,4.3,5.5,4.3h33.7c0,0,8,0,34.2,0c5.1,0,4.9-3.2,4.9-3.2S172.5,97.4,172.4,93.6z"/>
<path fill="#FFFFFF" d="M175.4,71.2c0,0-4.9-0.4-4.9,3.2c0,3.6-0.6,36.4,43.6,37.9c44.7-0.4,45.1-33.8,42.9-41.1
	c-2.3-8.6-8.4-18.6-24.2-22.5s-26.1-7.2-26.1-7.2s-10.4-1.6-10.1-11.1c0.3-9.5,12.2-10.3,17.5-10.2s16.2,1.4,17.6,12.9
	c0.6,2.5,0.3,4.6,4.7,4.6c4.5,0,14.5,0,14.5,0s3.9,0.2,3.7-3.7c0.4-3.2-3.4-33.5-40.5-32.6c-35.3-1.1-40.1,24.4-40.2,30.9
	c-0.2,6.5,2.4,21.8,20.8,27.7c18.9,5.6,29.8,8.6,29.8,8.6s14.2,1.2,9.6,16.2c-3.7,10.7-31.2,11.4-38.5-0.4c-4.2-6.8-0.3-12.4-7-13.1
	S175.4,71.2,175.4,71.2z"/>
<path fill="none" stroke="#FFFFFF" stroke-width="3" stroke-miterlimit="10" d="M257.9,5h15.4c0,0,4.3-0.4,7.5,4.3
	c2.7,3.9,44,64.4,44,64.4s3.3,3.1,3.3-0.9c0-4,0-65.3,0-65.3s0-2.8,3.5-2.8c3.5,0,6.6,0,6.6,0"/>
<path fill="none" stroke="#FFFFFF" stroke-width="3" stroke-miterlimit="10" d="M257.9,107c0,0,13.5-3.3,14.3-24.4
	c0-31.5,0-40.6,0-40.6s0.2-4.3,3.3,0c3.1,4.3,46.4,64.1,46.9,64.9c0.5,0.7,2.4,2.5,5.3,3.1c1.7,0,16.2,0,16.2,0s5.1,0.4,5.1-3.1
	s0-83.7,0-83.7"/>
<path fill="#FFFFFF" d="M444.5,3.4c-6,0-17,0-17,0s-3.3-0.1-5.1,3.2c-1.8,3.3-23.6,39.8-23.6,39.8S376.9,9.9,375.2,6.6
	c-1.8-3.3-5.1-3.2-5.1-3.2s-11,0-17,0c-6-0.1-3,5.2-3,5.2s33.3,53.8,35.3,57c2,3.2,1.7,6.5,1.7,6.5s0.1,29.3,0,33
	c0,5.3,3.7,4.9,3.7,4.9h8h8c0,0,3.7,0.4,3.7-4.9c-0.1-3.7,0-33,0-33s-0.3-3.4,1.7-6.5c2-3.2,35.3-57,35.3-57S450.5,3.3,444.5,3.4z"
	/>
<path d="M423.7,90.1"/>
<path fill="#FFFFFF" d="M486.7,3.4c-48.3,0-51.1,42.6-51.1,53.3c-0.1,10.7,2.7,53.3,51.1,53.3c48.3,0,51.1-42.6,51-53.3
	C537.7,46,535,3.4,486.7,3.4z M486.6,90.6c-25.6,0-28.1-25.8-28.2-33.9c0.2-8.1,2.7-33.9,28.2-33.9c25.6,0.2,27.9,25.8,28,33.9
	C514.5,64.8,512.2,90.4,486.6,90.6z"/>
<path fill="#FFFFFF" d="M625.1,3.3c-5.4,0-13.7,0-13.7,0s-4.2-0.1-4.2,4.2c0,4.3,0.1,58.4,0,62.9c-0.1,4.5,2.3,21.6-21.6,21.6
	c-23.8,0-21.4-17.2-21.6-21.6c-0.1-4.5,0-58.6,0-62.9c0-4.3-4.2-4.2-4.2-4.2s-8.3,0-13.7,0c-5.4,0-4.3,5.5-4.3,5.5s0,32,0,69
	c3.8,37,43.8,34.5,43.8,34.5s40,2.5,43.8-34.5c0-37,0-69,0-69S630.5,3.3,625.1,3.3z"/>
</svg>
